<?xml version="1.0" standalone="no"?>
<!DOCTYPE svg PUBLIC "-//W3C//DTD SVG 20010904//EN"
 "http://www.w3.org/TR/2001/REC-SVG-20010904/DTD/svg10.dtd">
<svg version="1.0" xmlns="http://www.w3.org/2000/svg"
 width="1000.000000pt" height="1000.000000pt" viewBox="0 0 1000.000000 1000.000000"
 preserveAspectRatio="xMidYMid meet">
<metadata>
Created by potrace 1.14, written by Peter Selinger 2001-2017
</metadata>
<g transform="translate(0.000000,1000.000000) scale(0.100000,-0.100000)"
fill="#000000" stroke="none">
<path d="M0 5000 l0 -5000 5000 0 5000 0 0 5000 0 5000 -5000 0 -5000 0 0
-5000z m4440 3210 c-4 -3 -10 -14 -13 -25 -2 -11 -5 3 -5 30 -1 48 -1 49 13
25 7 -14 10 -27 5 -30z m-735 -30 c3 -5 -1 -10 -10 -10 -9 0 -13 5 -10 10 3 6
8 10 10 10 2 0 7 -4 10 -10z m4303 -927 c-26 -2 -71 -2 -100 0 -29 2 -8 3 47
3 55 0 79 -1 53 -3z m53 -33 c11 0 19 -4 19 -10 0 -5 -22 -10 -50 -10 -39 0
-50 3 -50 16 0 13 7 15 31 10 17 -3 40 -6 50 -6z m-4231 -1245 l0 -355 -270 0
-270 0 -2 -932 -3 -933 -432 -3 -433 -2 0 935 0 935 -272 2 -273 3 -3 353 -2
352 980 0 980 0 0 -355z m1020 -580 l0 -935 150 0 150 0 0 935 0 935 435 0
435 0 -2 -1017 -3 -1018 -117 -3 -118 -3 0 -154 0 -155 -115 0 -115 0 0 -115
0 -115 -550 0 -550 0 0 115 0 115 -115 0 -115 0 0 155 0 154 -117 3 -118 3 -3
1018 -2 1017 435 0 435 0 0 -935z m3278 583 l-3 -353 -547 -3 -548 -2 0 -115
0 -115 550 0 550 0 0 -350 0 -350 -547 -2 -548 -3 0 -115 0 -115 545 -2 545
-2 3 -351 2 -350 -980 0 -980 0 0 1290 0 1290 980 0 980 0 -2 -352z"/>
</g>
</svg>
